<?xml version="1.0" encoding="UTF-8"?>
<svg width="738px" height="288px" viewBox="0 0 738 288" version="1.1" xmlns="http://www.w3.org/2000/svg" xmlns:xlink="http://www.w3.org/1999/xlink">
    <title>Artboard</title>
    <g id="Artboard" stroke="none" stroke-width="1" fill="none" fill-rule="evenodd">
        <g id="Vpg-logo-fjell-rød-med-sort-tekst" transform="translate(0.500000, 0.300000)">
            <path d="M287.2,250.1 L287.2,271 C287.2,279.9 279.9,287.2 271,287.2 L16.2,287.2 C7.3,287.2 0,279.9 0,271 L0,16.2 C0,7.3 7.3,0 16.2,0 L271.1,0 C280.1,0 287.4,7.3 287.4,16.3 L287.2,250.1 L287.2,250.1 Z" id="Path" fill="#C42036"></path>
            <g id="Group" transform="translate(34.900000, 205.091632)" fill="#FFFFFF" fill-rule="nonzero">
                <path d="M13.4,35.9083679 L-1.42108547e-14,0.708367948 L12.6,0.708367948 L18.6,21.5083679 C18.6,21.6083679 18.7,21.8083679 18.7,22.0083679 C18.8,22.3083679 18.8,22.5083679 18.9,22.9083679 C19,23.2083679 19,23.6083679 19.1,24.0083679 C19.1,24.4083679 19.2,24.7083679 19.2,25.1083679 L19.4,25.1083679 C19.4,23.9083679 19.6,22.7083679 20,21.6083679 L26.2,0.708367948 L38.9,0.708367948 L25.5,35.9083679 L13.4,35.9083679 L13.4,35.9083679 Z" id="Path"></path>
                <path d="M60.1,9.60836795 C58.6,9.50836795 57.1,10.2083679 56.4,11.5083679 C55.6,13.3083679 55.2,15.2083679 55.2,17.2083679 L55.2,18.2083679 C55,20.5083679 55.5,22.7083679 56.4,24.8083679 C57.2,26.1083679 58.7,26.9083679 60.2,26.8083679 C61.6,26.9083679 63,26.1083679 63.6,24.8083679 C64.4,22.7083679 64.8,20.4083679 64.7,18.2083679 C64.8,16.0083679 64.5,13.7083679 63.6,11.7083679 C62.9,10.3083679 61.5,9.50836795 60.1,9.60836795 M64.2,36.5083679 C60.7,36.6083679 57.4,35.1083679 55.2,32.4083679 L54.6,32.4083679 C54.9,33.9083679 55,35.5083679 55.2,37.0083679 L55.2,51.1083679 L43,51.1083679 L43,0.608367948 L52.9,0.608367948 L54.6,5.10836795 L55.2,5.10836795 C57.2,1.90836795 60.8,-0.0916320516 64.6,0.108367948 C68.3,0.0083679484 71.8,1.80836795 73.8,4.90836795 C76,8.10836795 77.1,12.5083679 77.1,18.2083679 C77.1,23.9083679 75.9,28.4083679 73.6,31.6083679 C71.5,34.8083679 68,36.7083679 64.2,36.5083679" id="Shape"></path>
                <path d="M94.6,12.2083679 C94.6,15.8083679 95.8,17.6083679 98.4,17.6083679 C99.5,17.6083679 100.5,17.1083679 101.1,16.3083679 C101.8,15.1083679 102.1,13.7083679 102,12.3083679 C102,8.70836795 100.8,6.80836795 98.4,6.80836795 C96,6.80836795 94.7,8.60836795 94.6,12.2083679 M90.7,40.3083679 C90.7,41.3083679 91.4,42.3083679 92.3,42.7083679 C93.6,43.4083679 95.1,43.7083679 96.6,43.6083679 C99,43.7083679 101.4,43.3083679 103.7,42.5083679 C105.5,41.8083679 106.4,40.8083679 106.4,39.7083679 C106.4,38.7083679 105.7,37.9083679 104.8,37.7083679 C103.3,37.3083679 101.7,37.1083679 100.2,37.1083679 L95.4,37.1083679 C94.2,37.1083679 93.1,37.4083679 92.1,38.0083679 C91.2,38.5083679 90.7,39.4083679 90.7,40.3083679 M117.3,0.708367948 L117.3,6.60836795 L112.5,8.40836795 C113.2,9.70836795 113.5,11.1083679 113.5,12.6083679 C113.7,16.0083679 112.2,19.3083679 109.5,21.4083679 C106.8,23.5083679 102.9,24.6083679 97.6,24.5083679 C96.6,24.5083679 95.5,24.4083679 94.5,24.2083679 C94.2,24.7083679 94.1,25.2083679 94.1,25.7083679 C94.1,26.3083679 94.6,26.8083679 95.6,27.1083679 C96.8,27.5083679 98.1,27.6083679 99.4,27.6083679 L105.3,27.6083679 C113.2,27.6083679 117.1,30.9083679 117.2,37.6083679 C117.3,41.7083679 115.2,45.5083679 111.7,47.6083679 C108,50.0083679 102.9,51.2083679 96.3,51.2083679 C91.3,51.2083679 87.4,50.4083679 84.7,48.7083679 C82.1,47.2083679 80.5,44.5083679 80.6,41.5083679 C80.6,37.3083679 83.2,34.6083679 88.4,33.4083679 C87.3,32.9083679 86.3,32.2083679 85.6,31.2083679 C84.9,30.4083679 84.4,29.3083679 84.4,28.2083679 C84.4,27.2083679 84.7,26.1083679 85.3,25.3083679 C86.4,24.1083679 87.6,23.1083679 89.1,22.3083679 C87.3,21.5083679 85.8,20.2083679 84.8,18.5083679 C83.7,16.6083679 83.2,14.4083679 83.2,12.2083679 C83,8.80836795 84.5,5.40836795 87.1,3.30836795 C89.7,1.20836795 93.4,0.108367948 98.3,0.108367948 C98.9,0.108367948 100.1,0.208367948 101.6,0.308367948 C103.2,0.408367948 104.3,0.608367948 105.1,0.708367948 L117.3,0.708367948 Z" id="Shape"></path>
                <path d="M121.1,30.8083679 C121,29.2083679 121.6,27.5083679 122.8,26.4083679 C124.2,25.3083679 125.9,24.7083679 127.7,24.8083679 C129.4,24.7083679 131.1,25.2083679 132.4,26.4083679 C133.6,27.6083679 134.2,29.2083679 134,30.8083679 C134.1,32.4083679 133.5,34.0083679 132.3,35.2083679 C131,36.3083679 129.3,36.9083679 127.6,36.8083679 C125.8,36.9083679 124.1,36.3083679 122.7,35.2083679 C121.6,34.0083679 121,32.4083679 121.1,30.8083679" id="Path"></path>
                <path d="M163.3,35.9083679 L163.3,16.7083679 C163.4,14.9083679 163.1,13.1083679 162.3,11.4083679 C161.6,10.2083679 160.4,9.50836795 159,9.60836795 C157.2,9.50836795 155.4,10.4083679 154.6,12.0083679 C153.7,13.6083679 153.2,16.4083679 153.2,20.4083679 L153.2,35.8083679 L141,35.8083679 L141,0.608367948 L150.2,0.608367948 L151.7,5.00836795 L152.4,5.00836795 C153.4,3.30836795 154.9,2.00836795 156.7,1.30836795 C158.7,0.508367948 160.9,0.0083679484 163,0.108367948 C166.9,0.108367948 169.9,1.20836795 172.1,3.50836795 C174.3,5.80836795 175.3,9.00836795 175.4,13.1083679 L175.4,36.0083679 L163.3,35.9083679 Z" id="Path"></path>
                <path d="M194.5,18.2083679 C194.4,20.6083679 194.8,22.9083679 195.7,25.1083679 C196.4,26.7083679 198.1,27.6083679 199.8,27.5083679 C201.5,27.6083679 203.1,26.7083679 203.8,25.1083679 C204.7,22.9083679 205.1,20.5083679 205,18.2083679 C205.1,15.9083679 204.7,13.5083679 203.8,11.4083679 C202.5,9.20836795 199.6,8.40836795 197.4,9.80836795 C196.7,10.2083679 196.2,10.8083679 195.8,11.4083679 C194.8,13.6083679 194.4,15.9083679 194.5,18.2083679 M217.3,18.2083679 C217.3,24.0083679 215.7,28.5083679 212.6,31.7083679 C209.5,34.9083679 205.2,36.5083679 199.6,36.5083679 C194.3,36.5083679 190,34.9083679 186.8,31.6083679 C183.6,28.3083679 182,23.8083679 182,18.2083679 C182,12.5083679 183.6,8.00836795 186.7,4.80836795 C189.8,1.60836795 194.2,0.0083679484 199.7,0.0083679484 C202.9,-0.0916320516 206.1,0.708367948 208.9,2.20836795 C211.5,3.70836795 213.7,5.90836795 215,8.50836795 C216.6,11.5083679 217.3,14.8083679 217.3,18.2083679" id="Shape"></path>
            </g>
            <path d="M244.3,163.9 C245.1,163.5 245.3,162.1 245.2,161.1 C244.6,154.6 240.6,151.2 238.9,150 C238.9,150 237.8,149.2 236.9,148.5 L232.1,144.6 C230.6,143.6 229.8,141.7 229.4,140.6 C229.2,139.9 229.2,138.9 229.2,138.9 C229.4,135.4 228.8,132.8 228.3,131.3 C227.9,130.2 227.2,129.4 227.2,129.4 C225,127 222.1,124.3 219.1,121.8 C218.7,121.4 218.4,121 218.3,120.7 C218,120.3 217.8,119.1 217.8,119.1 C217.8,118.8 217.7,118.4 217.7,118.1 C217.7,117.3 217.4,116.8 217.4,116.8 C214.9,111.3 208.9,112 207.3,112.3 C206.6,112.4 205.4,113.2 205.4,113.2 C204.6,113.6 203.7,113.5 203,113.4 C202.7,113.4 202.5,113.2 202.5,113.2 C202.2,113 201.5,112.6 201,112.4 C200.2,112.1 199.2,112.2 199.2,112.2 C195.9,112.6 197.7,114.8 197.7,114.8 L209.1,128.5 L231.4,152.9 C232.2,153.7 233.2,154.8 234.3,156 C236.2,158.1 238.1,160.2 239.3,161.7 C239.4,161.6 242.4,164.9 244.3,163.9 Z" id="Path" fill="#FFFFFF" fill-rule="nonzero"></path>
            <g id="Group" transform="translate(334.600000, 58.500000)" fill="#231F20" fill-rule="nonzero">
                <path d="M25.1,20.7 C26.2,20.8 27.4,20.9 28.7,20.9 L32.6,20.9 L36.6,20.9 C38,20.9 39.2,20.8 40.2,20.7 C40.2,21.9 40,23.1 39.5,24.2 C38.9,24.4 38.3,24.6 37.8,24.9 C37.2,25.3 36.7,25.8 36.3,26.4 C35.7,27.2 35.2,28.1 34.8,29 C34.3,30 33.7,31.4 33.1,33 L22.3,58.7 C21.6,58.7 21,58.6 20.3,58.5 C19.7,58.4 19.1,58.2 18.6,57.9 C18.3,57.1 17.8,56 17.1,54.4 C16.4,52.8 15.7,51.1 14.8,49.1 C13.9,47.2 13,45.1 12.1,43 C11.1,40.9 10.2,38.9 9.3,37 L7,32.1 C6.3,30.7 5.8,29.7 5.6,29.1 C5.1,28 4.6,27.2 4.2,26.5 C3.9,26 3.5,25.5 3.1,25 C2.8,24.7 2.4,24.4 1.9,24.3 C1.4,24.2 1,24.1 0.5,24 C0.3,23.4 0.2,22.9 0.1,22.3 C5.68434189e-14,21.7 5.68434189e-14,21.1 5.68434189e-14,20.5 C2.3,20.7 5.1,20.7 8.5,20.7 L13.8,20.7 C15.6,20.7 17.2,20.6 18.5,20.5 C18.5,21.1 18.5,21.7 18.3,22.2 C18.2,22.7 18.1,23.3 17.9,23.8 C16.8,23.9 15.8,24 14.7,24.2 C14.1,24.3 13.5,24.6 13.1,25.1 C12.8,25.6 12.8,26.2 12.9,26.7 C13.1,27.6 13.5,28.5 13.9,29.3 C14.3,30.1 14.8,31.4 15.6,33 C16.3,34.7 17.1,36.5 18,38.6 C18.9,40.7 19.8,42.8 20.7,44.9 C21.4,46.6 22.1,48.2 22.6,49.6 C23.8,46.5 24.8,43.7 25.8,41.2 C26.9,38.4 27.9,35.8 28.8,33.3 C30.2,29.8 30.6,27.3 30,26 C29.4,24.7 28.2,23.9 26.1,23.7 C25.4,23 25.1,21.9 25.1,20.7 Z" id="Path"></path>
                <path d="M58.5,40 C56.7,40 55,40.1 53.3,40.2 C53.3,41.4 53.5,42.5 53.7,43.7 C54,45.5 54.7,47.3 55.6,49 C56.5,50.5 57.7,51.9 59.2,52.8 C61,53.8 63,54.4 65,54.3 C66.8,54.3 68.6,53.9 70.3,53.1 C72.1,52.3 73.7,51.1 74.9,49.6 C75.4,49.9 75.8,50.3 76.1,50.7 C76.4,51.1 76.7,51.6 76.8,52.1 C75.1,54.3 72.9,56.1 70.4,57.3 C67.9,58.4 65.1,58.9 62.4,58.8 C59.8,58.9 57.2,58.3 54.9,57.3 C52.8,56.3 51,54.9 49.5,53.2 C48,51.4 46.9,49.3 46.3,47.1 C45.6,44.7 45.2,42.1 45.3,39.6 C45.3,37.1 45.7,34.6 46.5,32.2 C47.2,30 48.4,27.9 49.8,26 C51.2,24.2 53,22.8 55.1,21.8 C57.3,20.7 59.7,20.2 62.1,20.3 C64.4,20.2 66.7,20.7 68.8,21.6 C70.6,22.4 72.1,23.7 73.3,25.2 C74.5,26.8 75.5,28.6 76,30.5 C76.6,32.6 77,34.8 77.2,37 C77,38 76.6,38.9 76,39.8 L71.9,39.8 L65.7,39.8 C63.3,39.8 60.9,39.9 58.5,40 Z M53.8,31.2 C53.4,32.8 53.2,34.5 53.2,36.1 L68.8,36.1 C68.9,33.1 68.3,30.1 66.8,27.4 C65.8,25.3 63.6,24 61.3,24.1 C60.3,24.1 59.3,24.3 58.4,24.7 C57.3,25.2 56.4,25.9 55.8,26.9 C54.9,28.2 54.2,29.7 53.8,31.2 Z" id="Shape"></path>
                <path d="M97.3,33.9 C96.9,35.1 96.7,36.3 96.7,37.5 L96.7,46.1 C96.7,47.5 96.8,49 97.1,50.4 C97.3,51.4 97.7,52.3 98.4,53.1 C99,53.8 99.8,54.2 100.6,54.4 C101.7,54.7 102.8,54.8 103.9,54.8 C104.2,55.9 104.4,57.1 104.3,58.3 C103.1,58.2 101.5,58.1 99.7,58.1 C97.9,58.1 96,58.1 94.1,58.1 L91.1,58.1 C90.1,58.1 89.1,58.1 88.1,58.1 L85.4,58.2 C84.6,58.2 83.9,58.3 83.4,58.3 C83.3,57.1 83.5,56 83.8,54.8 C85.9,54.7 87.4,54.2 88.2,53.2 C89,52.3 89.4,50.4 89.4,47.7 L89.4,31.6 C89.4,30.8 89.3,29.9 89.2,29.1 C89.1,28.5 88.8,27.9 88.4,27.4 C87.9,26.9 87.3,26.5 86.6,26.4 C85.6,26.1 84.5,26 83.4,25.9 C83.4,25.4 83.5,24.8 83.6,24.3 C83.7,23.8 83.9,23.3 84.2,22.9 C85.1,22.8 86,22.7 86.9,22.5 C87.9,22.3 88.9,22.1 89.9,21.9 C90.9,21.6 91.8,21.4 92.7,21.1 C93.5,20.8 94.3,20.5 95,20.2 C95.5,20.4 95.9,20.8 96.2,21.2 C96.6,22 96.8,22.9 96.7,23.7 C96.7,25.4 96.6,27.1 96.2,28.7 L95.5,32 C95.8,31.3 96,30.6 96.2,29.8 C96.5,29 96.9,28.2 97.3,27.4 C98.4,25.6 99.8,24 101.5,22.7 C103.1,21.5 105.1,20.8 107.1,20.8 C108.1,20.8 109.1,21 110.1,21.3 C111,21.6 111.9,22.1 112.7,22.8 C112.5,24.4 112.3,26 112.3,27.5 C112.2,29.3 112.2,30.9 112.2,32.3 C111.6,32.5 110.9,32.7 110.2,32.8 C109.3,33 108.5,33 107.6,33 C107.5,30.4 107.1,28.7 106.3,27.9 C105.6,27.1 104.6,26.7 103.6,26.7 C102.8,26.8 102,27.1 101.3,27.6 C100.4,28.3 99.7,29.1 99.1,30.1 C98.3,31.4 97.7,32.7 97.3,33.9 Z" id="Path"></path>
                <path d="M121.7,21.8 L121.7,11.1 C122.8,10.8 123.9,10.4 124.9,9.8 C125.9,9.2 126.9,8.6 127.7,7.9 C127.9,8 128.1,8.1 128.3,8.3 C128.5,8.5 128.6,8.7 128.7,8.9 C128.8,9.3 128.9,9.7 128.9,10.1 C128.9,10.6 128.9,11.3 128.9,12.1 L128.9,21.8 L139.3,21.8 C139.3,23 139.1,24.3 138.6,25.4 C135.3,25.5 132.1,25.8 128.9,26.5 L128.9,46.7 C128.7,48.8 129.1,50.9 130.1,52.7 C130.8,53.9 132.1,54.6 133.5,54.5 C134.5,54.5 135.5,54.4 136.5,54 C137.4,53.7 138.2,53.2 138.9,52.5 C139.6,53.2 140,54.2 140.1,55.2 C139,56.3 137.6,57.2 136.1,57.8 C134.5,58.5 132.7,58.8 130.9,58.9 C127.7,58.9 125.3,58.1 123.8,56.5 C122.3,54.9 121.5,52.2 121.5,48.5 L121.5,26.4 C120.7,26.1 119.8,25.9 119,25.8 C118.1,25.6 117,25.5 115.7,25.4 C115.7,24.8 115.7,24.2 115.9,23.6 C116,23 116.2,22.4 116.5,21.9 L121.7,21.8 Z" id="Path"></path>
                <path d="M159,47.8 C159,50.5 159.4,52.3 160.1,53.3 C161,54.4 162.4,54.9 163.8,54.8 C164,55.4 164.1,56.1 164.1,56.7 C164.1,57.4 164.2,57.9 164.2,58.3 C162.8,58.2 161.3,58.1 159.7,58.1 C158.1,58.1 156.6,58.1 155,58.1 L150.2,58.1 C148.6,58.1 147.1,58.2 145.7,58.3 C145.7,57.8 145.7,57.2 145.8,56.6 C145.8,56 146,55.4 146.1,54.9 C148.3,54.9 149.7,54.4 150.5,53.4 C151.3,52.4 151.7,50.6 151.7,47.9 L151.7,31.9 C151.7,31.1 151.7,30.2 151.5,29.4 C151.4,28.7 151.1,28.1 150.7,27.6 C150.2,27.1 149.6,26.7 148.8,26.5 C147.7,26.2 146.7,26.1 145.6,26.1 C145.6,25.6 145.7,25 145.8,24.5 C145.9,24 146.1,23.5 146.4,23.1 C147.2,23.1 148,23 148.8,22.9 C149.8,22.7 150.9,22.5 152,22.3 C153,22.1 154.1,21.8 155.1,21.4 C155.9,21.1 156.6,20.8 157.3,20.4 C157.8,20.6 158.3,20.9 158.6,21.4 C159,22.1 159.2,22.9 159.1,23.7 L159,47.8 Z M149.9,6.4 C149.9,3.7 152,1.5 154.7,1.4 C156,1.4 157.2,1.9 158.2,2.8 C159.1,3.8 159.6,5.1 159.5,6.4 C159.5,7.6 159,8.8 158.1,9.7 C157.2,10.6 156,11.1 154.7,11.1 C152.1,11.2 150,9.2 149.9,6.6 C149.9,6.6 149.9,6.5 149.9,6.4 L149.9,6.4 Z" id="Shape"></path>
                <path d="M200.5,51.7 C199.2,53.9 197.3,55.7 195.1,57 C192.7,58.3 190,58.9 187.3,58.8 C185.2,58.8 183.1,58.4 181.2,57.6 C179.2,56.8 177.3,55.6 175.8,54 C174.1,52.3 172.8,50.2 171.9,48 C170.9,45.3 170.4,42.5 170.4,39.6 C170.4,37.2 170.8,34.8 171.5,32.5 C172.2,30.2 173.3,28.1 174.7,26.3 C176.1,24.5 177.9,23 180,21.9 C182.2,20.8 184.7,20.2 187.2,20.2 C192.3,20.2 196.3,21.4 199.4,23.8 C199.1,25.3 199,26.9 198.9,28.4 C198.9,29.9 198.8,31.4 198.8,33 C198.3,33.3 197.7,33.5 197.1,33.5 C196.4,33.6 195.8,33.6 195.1,33.6 C195,31 194,28.5 192.4,26.4 C190.9,24.7 188.8,23.8 186.6,23.9 C184,23.9 181.5,25.3 180.2,27.6 C178.7,30.1 177.9,33.6 177.9,38.3 C177.9,40.3 178.1,42.3 178.7,44.2 C179.2,46 179.9,47.7 180.9,49.2 C181.8,50.6 183.1,51.8 184.5,52.7 C186,53.6 187.7,54 189.5,54 C193.1,54 196.4,52.3 198.5,49.3 C198.9,49.5 199.4,49.9 199.7,50.2 C200,50.7 200.3,51.2 200.5,51.7 Z" id="Path"></path>
                <path d="M235.4,46 C235.4,48.6 235.7,50.3 236.3,51.2 C236.9,52.1 238.1,52.5 240.1,52.5 C240.1,53.2 240.1,53.8 240,54.5 C239.9,55.1 239.8,55.7 239.6,56.3 C238.1,56.5 236.6,56.9 235.1,57.3 C233.7,57.7 232.3,58.2 231,58.8 C230.4,58.6 229.9,58.1 229.6,57.6 C229.1,56.8 228.9,55.8 229,54.9 C229,54.2 229,53.5 229.1,52.9 C229.1,52.4 229.2,51.9 229.2,51.5 C228.7,53.3 227.6,54.8 226.2,55.9 C225.2,56.7 224.1,57.4 222.8,57.9 C221.3,58.5 219.6,58.7 218,58.7 C214.5,58.7 211.9,57.9 210.1,56.4 C208.3,54.8 207.3,52.5 207.5,50.1 C207.4,47.7 208.2,45.4 209.8,43.7 C211.4,42 213.3,40.7 215.4,39.7 C217.6,38.7 219.9,38 222.2,37.5 C224.6,37 226.6,36.7 228.2,36.4 C228.2,34.7 228.2,33.4 228.1,32.3 C228,31.2 228,30.3 227.8,29.6 C227.7,29 227.5,28.4 227.3,27.8 C227.1,27.3 226.8,26.9 226.4,26.4 C225.2,24.8 223.2,23.9 221.2,24 C220.1,24 219,24.3 218,25 C217.1,25.6 216.4,26.5 215.9,27.4 C215.3,28.3 214.9,29.4 214.7,30.4 C214.5,31.4 214.3,32.4 214.2,33.4 C213.6,33.4 212.9,33.4 212,33.3 C211.3,33.3 210.7,33.1 210,32.9 C210.1,31.4 210.1,29.9 210.1,28.4 C210.1,26.9 209.9,25.5 209.6,24.1 C211.8,23 214.1,22.1 216.4,21.5 C218.8,20.8 221.3,20.5 223.8,20.5 C225.4,20.5 227,20.7 228.5,21.4 C229.8,22 231,22.7 232,23.7 C232.7,24.4 233.3,25.1 233.7,26 C234.2,26.9 234.5,27.9 234.7,28.9 C235,30.1 235.1,31.4 235.2,32.7 C235.3,34.1 235.4,35.8 235.4,37.7 L235.4,46 Z M228.1,39.7 C226.7,39.9 225.2,40.1 223.7,40.4 C222.3,40.7 220.9,41.1 219.6,41.7 C218.4,42.3 217.3,43.1 216.5,44.1 C215.6,45.3 215.2,46.8 215.3,48.4 C215.2,50 215.7,51.6 216.8,52.8 C217.7,53.7 218.9,54.2 220.1,54.2 C221,54.2 222,54 222.8,53.6 C223.8,53.1 224.7,52.4 225.4,51.6 C226.3,50.6 227,49.4 227.4,48.1 C228,46.4 228.2,44.6 228.2,42.9 L228.1,39.7 Z" id="Shape"></path>
                <path d="M251.3,11.5 C251.3,10.7 251.3,9.8 251.1,9 C251,8.3 250.7,7.7 250.3,7.2 C249.8,6.7 249.2,6.3 248.4,6.1 C247.3,5.8 246.3,5.7 245.2,5.7 C245.2,5.2 245.2,4.6 245.4,4.1 C245.5,3.6 245.7,3.1 246,2.7 C246.8,2.7 247.6,2.6 248.4,2.5 C249.4,2.3 250.5,2.1 251.6,1.9 C252.6,1.7 253.7,1.4 254.7,1 C255.5,0.7 256.2,0.4 256.9,2.84217094e-14 C257.4,0.2 257.8,0.5 258.1,1 C258.5,1.7 258.7,2.5 258.6,3.3 L258.6,47.8 C258.6,50.5 259,52.3 259.7,53.3 C260.6,54.4 262,54.9 263.4,54.8 C263.6,55.4 263.7,56.1 263.7,56.7 C263.7,57.4 263.8,57.9 263.8,58.3 C262.4,58.2 260.9,58.1 259.4,58.1 C257.8,58.1 256.3,58.1 254.7,58.1 L249.9,58.1 C248.3,58.1 246.8,58.2 245.4,58.3 C245.4,57.8 245.4,57.2 245.5,56.6 C245.6,56 245.7,55.4 245.8,54.9 C248,54.9 249.4,54.4 250.2,53.4 C251,52.4 251.4,50.6 251.4,47.9 L251.3,11.5 Z" id="Path"></path>
                <path d="M20.9,135.2 C19.5,135.2 18.2,135.1 16.9,134.8 C16.1,134.6 15.2,134.4 14.2,134.2 L14.2,143.2 C14.2,144.5 14.4,145.7 14.7,147 C14.9,147.9 15.4,148.6 16,149.3 C16.6,149.9 17.4,150.3 18.2,150.5 C19.2,150.8 20.3,150.9 21.4,150.9 C21.7,152 21.9,153.2 21.8,154.4 C20.6,154.3 19,154.2 17.2,154.2 C15.4,154.2 13.5,154.2 11.6,154.2 L8.6,154.2 C7.6,154.2 6.6,154.2 5.6,154.2 L2.9,154.2 C2.1,154.2 1.4,154.3 0.9,154.3 C0.9,153.1 1,151.9 1.3,150.8 C3.5,150.7 4.9,150.2 5.7,149.2 C6.5,148.3 6.9,146.4 6.9,143.7 L6.9,108.2 C6.9,107.4 6.8,106.5 6.7,105.7 C6.6,105 6.3,104.4 5.8,104 C5.3,103.5 4.7,103.1 4,102.9 C3,102.6 1.9,102.5 0.8,102.5 C0.8,102 0.8,101.4 1,100.9 C1.1,100.4 1.3,99.9 1.6,99.5 C2.5,99.4 3.4,99.3 4.3,99.1 C5.3,98.9 6.3,98.7 7.3,98.5 C8.3,98.3 9.2,98 10.1,97.7 C10.9,97.5 11.7,97.1 12.4,96.8 C12.9,97 13.3,97.3 13.6,97.8 C14,98.6 14.2,99.5 14.1,100.4 C14.1,101.6 13.9,102.8 13.5,104 C13.3,104.7 13,105.5 12.7,106.5 L13.5,104.9 C14,104 14.4,103.3 14.7,102.9 C15.2,102.2 15.7,101.6 16.3,101 C17,100.3 17.9,99.6 18.8,99.1 C19.8,98.5 20.9,98 22,97.6 C23.2,97.2 24.5,97 25.8,97 C30.5,97 34.3,98.4 36.9,101.2 C39.6,104 40.9,108.3 40.9,114.2 C40.9,117.1 40.4,119.9 39.4,122.6 C38.5,125.1 37.1,127.4 35.3,129.4 C33.5,131.3 31.4,132.9 29,133.9 C26.5,134.8 23.7,135.3 20.9,135.2 Z M15,110.1 C14.5,112 14.2,114 14.2,116 L14.2,128.6 C14.9,129.2 15.7,129.8 16.6,130.3 C18.1,131.1 19.7,131.5 21.4,131.4 C22.7,131.4 23.9,131.2 25.1,130.8 C26.5,130.3 27.9,129.5 28.9,128.4 C30.2,127 31.2,125.4 31.9,123.6 C32.8,121.1 33.2,118.4 33.1,115.7 C33.1,111.4 32.2,108 30.5,105.5 C29.1,103.2 26.7,101.8 24,101.7 C22.8,101.7 21.6,102 20.5,102.5 C19.2,103.1 18.2,104 17.3,105.2 C16.3,106.8 15.5,108.4 15,110.1 Z" id="Shape"></path>
                <path d="M51.6,88 C51.6,87.2 51.6,86.3 51.4,85.5 C51.3,84.8 51,84.2 50.6,83.7 C50.1,83.2 49.4,82.8 48.7,82.6 C47.6,82.3 46.6,82.2 45.5,82.2 C45.5,81.7 45.5,81.1 45.7,80.6 C45.8,80.1 46,79.6 46.3,79.2 C47.1,79.2 47.9,79.1 48.7,79 C49.7,78.8 50.8,78.6 51.9,78.4 C52.9,78.2 54,77.9 55,77.5 C55.8,77.2 56.5,76.9 57.2,76.5 C57.7,76.7 58.1,77 58.4,77.5 C58.8,78.2 59,79 58.9,79.8 L58.9,124.2 C58.9,126.9 59.3,128.7 60,129.7 C60.9,130.8 62.3,131.3 63.7,131.2 C63.9,131.8 64,132.5 64,133.1 C64.1,133.8 64.1,134.3 64.1,134.7 C62.7,134.6 61.2,134.5 59.7,134.5 C58.1,134.5 56.6,134.5 55,134.5 C53.4,134.5 51.8,134.5 50.2,134.5 C48.6,134.5 47.1,134.6 45.7,134.7 C45.7,134.2 45.7,133.6 45.8,133 C45.9,132.4 46,131.8 46.1,131.3 C48.3,131.3 49.7,130.8 50.5,129.8 C51.3,128.8 51.7,127 51.7,124.3 L51.6,88 Z" id="Path"></path>
                <path d="M99,122.4 C99,125 99.3,126.7 99.9,127.6 C100.5,128.5 101.7,128.9 103.7,128.9 C103.7,129.5 103.7,130.1 103.6,130.9 C103.5,131.5 103.4,132.1 103.2,132.7 C101.7,132.9 100.2,133.3 98.7,133.7 C97.3,134.1 95.9,134.6 94.6,135.2 C94,134.9 93.5,134.5 93.2,134 C92.7,133.2 92.5,132.2 92.6,131.2 C92.6,130.4 92.6,129.7 92.7,129.2 C92.8,128.7 92.8,128.3 92.8,127.8 C92.6,128.5 92.3,129.2 91.9,129.9 C91.3,130.8 90.6,131.6 89.8,132.3 C88.8,133.2 87.7,133.8 86.4,134.3 C84.9,134.8 83.3,135.1 81.7,135.1 C78.2,135.1 75.6,134.3 73.8,132.8 C72,131.2 71,128.9 71.2,126.5 C71.1,124.1 71.9,121.8 73.5,120.1 C75.1,118.4 77,117.1 79.1,116.1 C81.3,115.1 83.6,114.4 85.9,113.9 C88.3,113.4 90.3,113.1 91.9,112.8 C91.9,111.1 91.9,109.8 91.8,108.7 C91.7,107.6 91.7,106.7 91.6,106 C91.5,105.4 91.3,104.8 91.1,104.2 C90.9,103.7 90.6,103.3 90.2,102.8 C89,101.2 87,100.3 85,100.4 C83.9,100.4 82.8,100.7 81.8,101.4 C80.9,102.1 80.2,102.9 79.7,103.8 C79.1,104.7 78.7,105.8 78.5,106.8 C78.3,107.8 78.1,108.8 78.1,109.8 C77.5,109.8 76.8,109.8 75.9,109.7 C75.2,109.7 74.6,109.5 73.9,109.3 C74,107.8 74,106.3 74,104.8 C74,103.3 73.8,101.9 73.5,100.5 C75.7,99.4 78,98.5 80.3,97.9 C82.7,97.2 85.2,96.9 87.7,96.9 C89.3,96.9 90.9,97.1 92.4,97.8 C93.7,98.4 94.9,99.1 95.9,100.1 C96.6,100.8 97.1,101.5 97.6,102.4 C98.1,103.3 98.4,104.3 98.6,105.3 C98.9,106.5 99,107.8 99.1,109.1 C99.2,110.5 99.3,112.2 99.3,114.1 L99,122.4 Z M91.7,116.1 C90.3,116.3 88.8,116.5 87.3,116.8 C85.9,117.1 84.5,117.5 83.2,118.1 C82,118.7 80.9,119.5 80.1,120.6 C79.2,121.8 78.8,123.3 78.8,124.8 C78.7,126.4 79.2,128 80.3,129.2 C81.2,130.1 82.4,130.6 83.6,130.6 C84.5,130.6 85.5,130.4 86.3,130 C87.3,129.5 88.2,128.8 88.9,128 C89.8,127 90.5,125.8 90.9,124.5 C91.4,122.8 91.7,121.1 91.7,119.3 L91.7,116.1 Z" id="Shape"></path>
                <path d="M134.7,110.4 C135.3,109 135.7,107.6 136,106.1 C136.2,105.2 136.1,104.2 135.7,103.3 C135.4,102.6 134.8,102 134,101.6 C133.1,101.2 132.1,100.9 131,100.7 C130.6,99.6 130.4,98.4 130.4,97.2 C131.6,97.3 132.9,97.4 134.2,97.4 L142.6,97.4 C144,97.4 145.3,97.3 146.5,97.2 C146.5,97.7 146.5,98.3 146.5,98.9 C146.5,99.5 146.3,100.1 146.1,100.7 C145.4,100.8 144.8,101.1 144.2,101.4 C143.6,101.8 143.1,102.2 142.7,102.8 C142.1,103.6 141.7,104.4 141.3,105.3 C140.8,106.3 140.2,107.6 139.6,109.1 L127.7,137.4 C126.1,141.1 124.8,144 123.6,146.3 C122.7,148.2 121.6,149.9 120.2,151.5 C119.4,152.5 118.3,153.4 117,153.9 C115.9,154.3 114.7,154.5 113.6,154.5 C111.4,154.6 109.3,154 107.5,152.6 C107.3,151.6 107.2,150.6 107.2,149.6 C107.2,148.6 107.3,147.7 107.5,146.7 C109.2,147 110.9,147.2 112.7,147.2 C114.3,147.2 115.8,146.8 117.2,146.1 C118.7,145.2 120,144 120.9,142.4 C121.4,141.6 121.9,140.7 122.3,139.8 C122.9,138.6 123.5,137.3 124.2,135.6 C124.4,135.3 124.5,135.1 124.6,134.8 C123.8,133 123,131.2 122.1,129.2 C121.1,126.8 120,124.5 119,122.2 C118,119.9 117,117.8 116,115.7 C115.1,113.6 114.2,111.9 113.5,110.4 C112.5,108.4 111.7,106.8 111,105.5 C110.5,104.5 109.8,103.5 109.1,102.6 C108.6,102 108.1,101.5 107.4,101.1 C106.8,100.8 106.2,100.5 105.5,100.4 C105.2,99.3 105,98.1 105,96.9 C106.6,96.9 108.1,97 109.7,97 C111.3,97 112.7,97 114.1,97 L119.3,97 L122.2,96.9 C123.2,96.8 124.1,96.8 124.9,96.8 C124.9,98 124.7,99.2 124.3,100.3 C123.1,100.5 122,100.8 120.9,101.3 C120.2,101.6 119.6,102.2 119.3,102.9 C119,103.7 119,104.6 119.3,105.4 C119.7,106.7 120.2,108 120.8,109.2 C121.3,110.4 122,111.8 122.7,113.3 C123.4,114.8 124.1,116.4 124.8,118.1 C125.5,119.8 126.2,121.4 126.9,123 C127.3,124 127.7,125 128,125.9 C128.3,125.3 128.5,124.7 128.8,124 L134.7,110.4 Z" id="Path"></path>
                <path d="M167.4,96.7 C169.1,96.7 170.9,96.9 172.5,97.4 L185.8,97.4 C186,98.2 186.2,99 186.2,99.8 C186.3,100.7 186.3,101.6 186.3,102.4 C185.6,102.2 184.9,102.1 184,101.9 L181.4,101.5 L178.8,101.1 L178.5,101.1 L178.8,101.4 C179.9,102.6 180.8,104 181.4,105.6 C181.9,106.9 182.2,108.2 182.2,109.6 C182.2,111.4 181.9,113.2 181.3,114.9 C180.7,116.5 179.7,118 178.5,119.2 C177.2,120.5 175.6,121.5 173.9,122.1 C171.9,122.8 169.7,123.2 167.6,123.2 C165.7,123.2 163.8,122.9 162,122.4 C161.8,122.3 161.6,122.2 161.4,122.1 C160.9,122.6 160.4,123.2 160,123.8 C159.6,124.4 159.4,125.2 159.4,125.9 C159.4,126.5 159.5,127.1 159.8,127.7 C160.2,128.2 160.8,128.6 161.4,128.7 C162.6,129 163.8,129.2 165,129.2 C166.5,129.3 168.6,129.3 171.2,129.3 C173.5,129.3 175.8,129.4 178,129.8 C179.6,130 181.1,130.5 182.5,131.3 C183.6,131.9 184.5,132.9 185,134.1 C185.5,135.4 185.8,136.8 185.8,138.3 C185.8,140.3 185.3,142.2 184.3,143.9 C183.2,145.9 181.8,147.7 180.1,149.2 C178.2,150.8 176.1,152.2 173.7,153.1 C171.1,154.1 168.4,154.6 165.7,154.6 C160.7,154.6 157.1,153.7 154.9,151.8 C152.6,149.7 151.4,146.7 151.6,143.7 C151.6,141.8 152.1,139.9 153.2,138.4 C154.3,136.9 155.8,135.8 157.5,135 C157,134.8 156.5,134.6 156,134.4 C155.2,133.9 154.6,133.1 154.2,132.2 C153.8,131.2 153.6,130.1 153.7,129 C153.7,127.2 154.3,125.4 155.2,123.8 C156,122.6 156.9,121.4 158,120.4 L157.4,119.9 C156,118.8 154.9,117.4 154.2,115.8 C153.4,114 153,112.1 153,110.1 C153,108.3 153.3,106.6 153.9,104.9 C154.5,103.3 155.4,101.8 156.7,100.6 C158,99.3 159.5,98.4 161.2,97.7 C163.1,97 165.3,96.7 167.4,96.7 Z M165.6,135.8 C163.9,135.8 162.4,135.7 161.2,135.6 C160.4,136.3 159.7,137.1 159.3,138.1 C158.8,139.3 158.5,140.6 158.6,141.9 C158.4,144.2 159.2,146.4 160.6,148.1 C161.9,149.5 164.3,150.2 167.6,150.2 C169.2,150.2 170.9,150 172.4,149.5 C173.7,149.1 174.9,148.4 176,147.6 C177,146.8 177.7,145.9 178.3,144.8 C178.8,143.8 179.1,142.6 179.1,141.5 C179.1,140.6 178.9,139.7 178.6,138.9 C178.2,138.1 177.5,137.5 176.6,137.2 C175.3,136.7 173.9,136.4 172.5,136.2 C170.1,135.9 167.9,135.8 165.6,135.8 Z M166.6,100.3 C165.6,100.3 164.6,100.5 163.8,101 C163,101.5 162.3,102.2 161.8,102.9 C161.2,103.8 160.8,104.7 160.6,105.7 C160.4,106.8 160.2,107.9 160.2,109 C160.2,112.4 160.9,115 162.4,116.8 C163.9,118.6 166.1,119.6 168.5,119.5 C170.2,119.5 171.9,118.7 172.9,117.3 C174.2,115.4 174.8,113.1 174.6,110.8 C174.6,109.4 174.4,108 174.1,106.7 C173.8,105.5 173.3,104.4 172.5,103.4 C171.8,102.5 171,101.7 170,101.1 C168.9,100.6 167.8,100.3 166.6,100.3 L166.6,100.3 Z" id="Shape"></path>
                <path d="M206.5,110.4 C206.1,111.6 205.9,112.8 205.9,114 L205.9,122.7 C205.9,124.1 206,125.6 206.3,127 C206.5,128 206.9,128.8 207.6,129.6 C208.2,130.2 209,130.7 209.8,130.9 C210.9,131.2 212,131.3 213.1,131.3 C213.4,132.4 213.6,133.6 213.5,134.8 C212.3,134.7 210.7,134.6 208.9,134.6 C207.1,134.6 205.2,134.6 203.3,134.6 L200.3,134.6 C199.3,134.6 198.3,134.6 197.3,134.6 L194.6,134.7 C193.8,134.7 193.1,134.8 192.6,134.8 C192.5,133.6 192.7,132.5 193,131.3 C195.2,131.2 196.6,130.7 197.4,129.7 C198.2,128.8 198.6,126.9 198.6,124.2 L198.6,108.2 C198.6,107.4 198.5,106.5 198.4,105.7 C198.3,105.1 198,104.4 197.6,104 C197.1,103.5 196.5,103.1 195.8,102.9 C194.8,102.6 193.7,102.5 192.6,102.5 C192.6,102 192.7,101.4 192.8,100.9 C192.9,100.4 193.1,99.9 193.4,99.5 C194.3,99.4 195.2,99.3 196.1,99.1 C197.1,98.9 198.1,98.7 199.1,98.5 C200.1,98.3 201,98 201.9,97.7 C202.7,97.4 203.5,97.1 204.2,96.8 C204.7,97 205.1,97.3 205.4,97.8 C205.8,98.6 206,99.5 205.9,100.4 C205.9,102.1 205.8,103.8 205.4,105.4 L204.7,108.7 C205,108 205.2,107.3 205.4,106.5 C205.7,105.7 206.1,104.8 206.5,104.1 C207.6,102.3 209,100.7 210.7,99.4 C212.3,98.2 214.3,97.5 216.3,97.5 C217.3,97.5 218.3,97.6 219.3,98 C220.2,98.3 221.1,98.8 221.9,99.4 C221.7,101 221.5,102.6 221.5,104.1 C221.4,105.9 221.4,107.5 221.4,108.9 C220.7,109.1 220.1,109.3 219.4,109.4 C218.5,109.6 217.7,109.6 216.8,109.6 C216.7,107 216.3,105.3 215.6,104.5 C214.9,103.7 213.9,103.3 212.9,103.3 C212.1,103.4 211.3,103.7 210.6,104.2 C209.7,104.9 209,105.7 208.4,106.7 C207.6,107.8 207,109.1 206.5,110.4 Z" id="Path"></path>
                <path d="M226.7,116 C226.7,113.4 227.1,110.8 228,108.3 C228.8,106 230.1,104 231.8,102.2 C233.4,100.5 235.4,99.1 237.6,98.1 C239.9,97.1 242.5,96.6 245,96.6 C247.6,96.6 250.2,97 252.7,98 C254.9,98.9 256.8,100.2 258.4,101.9 C260,103.7 261.2,105.7 262,108 C262.8,110.5 263.2,113.2 263.2,115.9 C263.2,118.5 262.8,121.1 261.9,123.6 C261.1,125.9 259.8,127.9 258.2,129.7 C256.6,131.4 254.6,132.8 252.5,133.7 C250.1,134.7 247.6,135.2 245,135.2 C242.4,135.2 239.9,134.8 237.5,133.8 C235.3,132.9 233.3,131.6 231.7,129.9 C230.1,128.2 228.8,126.1 228,123.8 C227.1,121.3 226.6,118.7 226.7,116 Z M234.9,114.3 C234.9,119.8 235.9,124 237.8,127 C239.4,129.8 242.4,131.5 245.7,131.4 C248.7,131.6 251.5,130 252.9,127.4 C254.6,124.2 255.4,120.6 255.3,117 C255.3,114.7 255,112.4 254.4,110.2 C253.9,108.4 253.1,106.6 252,105 C251.1,103.7 249.9,102.5 248.5,101.7 C247.2,101 245.7,100.6 244.2,100.6 C241.3,100.5 238.6,101.9 237.2,104.4 C235.6,107.4 234.8,110.8 234.9,114.3 L234.9,114.3 Z" id="Shape"></path>
                <path d="M296.6,107.8 C296.6,107 296.5,106.1 296.4,105.3 C296.3,104.7 296,104 295.5,103.6 C295,103.1 294.4,102.7 293.7,102.5 C292.7,102.2 291.6,102.1 290.5,102.1 C290.5,101.6 290.5,101.1 290.6,100.5 C290.7,100 290.8,99.5 291.1,99.1 C293.2,99 295.2,98.7 297.2,98.3 C298.9,98 300.5,97.5 302.1,96.8 C302.6,97 303,97.3 303.3,97.8 C303.7,98.6 303.9,99.5 303.8,100.4 L303.8,123.6 C303.8,124.4 303.8,125.3 304,126.1 C304.1,127.4 305.1,128.5 306.4,128.9 C307.3,129.2 308.3,129.3 309.3,129.4 C309.3,130 309.3,130.6 309.2,131.1 C309.1,131.7 309,132.3 308.8,132.8 C308,132.8 307.3,132.9 306.5,133 C305.6,133.1 304.7,133.3 303.7,133.5 C302.8,133.7 301.9,134 301,134.3 C300.3,134.6 299.6,134.9 299,135.3 C298.4,135.1 298,134.7 297.6,134.2 C297.1,133.3 296.9,132.3 297,131.3 C297,130.2 297,129.1 297.2,128.1 L297.2,127.4 C296.6,128.7 295.8,129.8 294.8,130.8 C292.2,133.5 288.7,135 285,134.9 C283.3,134.9 281.6,134.7 280,134.2 C278.6,133.7 277.3,132.9 276.2,131.8 C275.1,130.5 274.3,129 273.9,127.4 C273.3,125.1 273.1,122.8 273.1,120.5 L273.1,108.2 C273.1,107.4 273.1,106.5 273,105.7 C272.9,105.1 272.7,104.5 272.3,104 C271.9,103.5 271.3,103.1 270.7,102.9 C269.8,102.6 268.8,102.5 267.8,102.5 C267.8,102 267.8,101.4 267.9,100.9 C268,100.4 268.1,99.9 268.4,99.5 C269.3,99.4 270.2,99.3 271,99.1 C271.9,98.9 272.9,98.7 273.8,98.5 C274.7,98.3 275.6,98 276.4,97.7 C277.2,97.4 277.9,97.1 278.6,96.8 C279.1,97 279.6,97.3 279.9,97.8 C280.3,98.6 280.5,99.5 280.4,100.4 L280.4,118.8 C280.4,122.9 280.9,125.8 282,127.5 C283.1,129.2 285,130.1 287.7,130.1 C288.8,130.1 289.9,129.8 290.9,129.3 C292,128.7 293,127.8 293.8,126.8 C294.7,125.5 295.4,124 295.8,122.5 C296.3,120.5 296.6,118.4 296.6,116.3 L296.6,107.8 Z" id="Path"></path>
                <path d="M352.4,124.2 C352.4,127 352.8,128.9 353.6,129.8 C354.5,130.8 355.8,131.3 357.2,131.2 C357.4,131.7 357.5,132.2 357.5,132.7 C357.5,133.2 357.6,133.9 357.6,134.6 C356.4,134.5 355.1,134.4 353.5,134.4 C352,134.4 350.4,134.4 348.7,134.4 C347,134.4 345.3,134.4 343.6,134.5 C341.8,134.6 340.3,134.6 339.1,134.7 C339,133.5 339.2,132.4 339.5,131.2 C341.1,131.3 342.6,130.8 343.7,129.7 C344.6,128.7 345,126.9 345,124.2 L345,111.8 C345,110.2 344.9,108.6 344.4,107.1 C344.1,106 343.6,104.9 342.8,104.1 C342.1,103.4 341.3,102.8 340.4,102.5 C339.4,102.2 338.4,102 337.4,102 C336.3,102 335.2,102.3 334.2,102.7 C333,103.3 332,104.1 331.3,105.1 C330.3,106.3 329.6,107.8 329.2,109.3 C328.6,111.3 328.3,113.5 328.3,115.6 L328.3,124.3 C328.3,127 328.7,128.8 329.5,129.8 C330.3,130.8 331.8,131.3 333.9,131.3 C334.1,131.8 334.2,132.3 334.2,132.8 C334.2,133.3 334.3,134 334.3,134.7 C333.2,134.7 331.7,134.6 329.9,134.5 C328.1,134.5 326.3,134.4 324.7,134.4 C323.1,134.4 321.3,134.4 319.5,134.4 C317.7,134.4 316.2,134.5 315.1,134.6 C315.1,133.4 315.2,132.3 315.5,131.1 C317.6,131.1 319.1,130.6 319.9,129.6 C320.7,128.6 321.1,126.8 321.1,124.1 L321.1,108.1 C321.1,107.3 321,106.4 320.9,105.6 C320.8,104.9 320.5,104.3 320,103.9 C319.5,103.4 318.9,103 318.2,102.8 C317.2,102.5 316.1,102.4 315,102.4 C315,101.9 315,101.3 315.2,100.8 C315.3,100.3 315.5,99.8 315.8,99.4 C316.7,99.3 317.6,99.2 318.5,99 C319.5,98.8 320.5,98.6 321.5,98.4 C322.5,98.2 323.4,97.9 324.3,97.6 C325.1,97.4 325.9,97 326.6,96.7 C327.1,96.9 327.5,97.2 327.8,97.7 C328.2,98.5 328.4,99.4 328.3,100.3 C328.3,100.9 328.3,101.7 328.2,102.5 C328.1,103.4 328,104.2 327.7,105.1 C327.9,104.8 328,104.5 328.2,104.2 C328.4,103.8 328.7,103.4 328.9,103 C329.4,102.3 330,101.6 330.7,101 C331.5,100.3 332.4,99.7 333.3,99.1 C334.4,98.5 335.5,98 336.6,97.7 C337.9,97.3 339.2,97.1 340.6,97.1 C342.1,97.1 343.6,97.3 345,97.8 C346.4,98.3 347.7,99 348.7,100 C349.8,101.1 350.7,102.5 351.2,104.1 C351.9,106.1 352.2,108.2 352.1,110.3 L352.4,124.2 Z" id="Path"></path>
                <path d="M383.8,96.7 C385.2,96.7 386.5,96.8 387.8,97.1 L390.5,97.8 L390.5,87.9 C390.5,87.1 390.5,86.2 390.3,85.4 C390.2,84.7 389.9,84.1 389.5,83.6 C389,83.1 388.3,82.7 387.6,82.5 C386.5,82.2 385.5,82.1 384.4,82.1 C384.4,81.6 384.4,81 384.6,80.5 C384.7,80 384.9,79.5 385.2,79.1 C386,79.1 386.8,79 387.6,78.9 C388.6,78.7 389.7,78.5 390.8,78.3 C391.8,78.1 392.9,77.8 393.9,77.4 C394.7,77.1 395.4,76.8 396.1,76.4 C396.6,76.6 397,76.9 397.3,77.4 C397.7,78.1 397.9,78.9 397.8,79.7 L397.8,124.2 C397.7,125.5 398.1,126.8 398.9,127.9 C399.5,128.7 401,129.1 403.3,129.2 C403.3,129.8 403.3,130.4 403.2,130.9 C403.1,131.5 403,132.1 402.8,132.6 C402.1,132.6 401.3,132.7 400.6,132.8 C399.7,132.9 398.8,133.1 397.9,133.3 C397,133.5 396.2,133.8 395.3,134.1 C394.6,134.4 394,134.7 393.4,135.1 C392.9,134.9 392.4,134.5 392,134 C391.5,133.1 391.3,132.1 391.4,131.1 C391.4,130.1 391.4,129.2 391.5,128.2 C391.6,127.5 391.7,126.6 391.8,125.6 C391.6,126.1 391.4,126.6 391.1,127.1 C390.6,128 390.2,128.7 389.9,129.1 C389.4,129.8 388.9,130.4 388.3,131 C387.6,131.7 386.8,132.4 385.9,132.9 C384.9,133.5 383.8,134 382.7,134.4 C381.5,134.8 380.2,135 378.9,135 C374.2,135 370.4,133.6 367.8,130.7 C365.1,127.8 363.8,123.3 363.8,117 C363.8,114.3 364.3,111.6 365.3,109 C366.2,106.6 367.6,104.3 369.4,102.5 C371.2,100.6 373.4,99.1 375.8,98.1 C378.1,97.2 380.9,96.7 383.8,96.7 Z M389.6,121.9 C390.1,120 390.4,118 390.5,116 L390.5,103.4 C389.7,102.7 388.9,102.2 388.1,101.6 C386.7,100.8 385,100.4 383.4,100.5 C382.1,100.5 380.9,100.7 379.7,101.1 C378.3,101.6 377,102.4 375.9,103.5 C374.6,104.9 373.6,106.5 372.9,108.3 C372,110.8 371.6,113.5 371.7,116.2 C371.6,118.4 372,120.6 372.6,122.8 C373.1,124.3 373.9,125.8 374.9,127.1 C375.7,128.1 376.7,128.9 377.8,129.5 C378.7,130 379.7,130.2 380.8,130.2 C382,130.2 383.2,129.9 384.3,129.4 C385.6,128.8 386.6,127.9 387.5,126.7 C388.4,125.2 389.2,123.6 389.6,121.9 L389.6,121.9 Z" id="Shape"></path>
            </g>
            <path d="M27.4,171.8 C32,170.3 36.3,167.8 40.1,164.6 C42.3,162.4 44.7,160.3 47.2,158.4 C49.4,156.7 52.1,156.1 54.7,156.6 C54.7,156.6 55.9,156.7 56,157.7 C56.1,158.8 55.6,160 55.3,161.2 C55.3,161.2 49.9,179.2 68.4,163.7 C73.1,159.4 77.4,154.6 81.3,149.3 C84.4,144.8 86.7,139.8 90.1,135.5 C91.4,133.8 92.9,132.3 94.4,130.8 L94.6,130.6 C94.9,130.3 95.2,130.1 95.5,129.8 C104.4,123.3 106.1,125.9 106.1,125.9 C106.8,126.9 107.1,129.3 103.9,135.6 L103.8,135.9 L99.7,143.3 C97.4,147.2 95.5,151.4 94.2,155.8 C93.9,157.6 93.3,159.3 92.4,160.8 C91.1,162.5 89,163.1 87.2,164.3 C83.3,167 81.8,172.2 80.6,177 C80.2,178 80.2,179.2 80.5,180.2 C81.3,181.8 83.4,181.8 85,181.2 C90.5,179.2 94.2,173.8 98,169 C98.9,167.9 99.9,166.8 100.8,165.7 C111.2,154.7 115.4,152.2 115.4,152.2 C115.4,152.2 118.9,150 117.8,154.2 L117.4,155.3 C117.4,155.3 116.2,158.3 115.1,160.4 C112.1,166.2 107.6,174.6 112.2,173.6 C112.2,173.6 113.1,173.4 114.5,173 C117.6,172.1 126.1,169.7 130.5,164 L131.5,162.6 C132.9,160.6 134.2,158.5 135.9,156.8 C136.8,156 137.7,155.2 138.7,154.5 C141.4,152.4 143.9,150.1 146.2,147.7 C147,147 148.1,145.3 148.1,145.3 C148.7,144 149.1,142.7 149.1,142.7 C149.2,142.2 149.2,141.7 149,141.3 C148.7,141 148.3,140.8 147.8,140.8 C147.6,140.8 147.4,140.8 147.2,140.9 C147.2,140.9 147,140.9 147.3,140.5 L147.8,139.8 C148,139.5 148.2,139.3 148.4,139 L148.9,138.2 C150.1,136.5 150.9,134.7 150.7,132.7 C150.6,131.7 149.5,131.8 149.5,131.8 C147.5,131.9 145.6,133 144.1,134.3 C142.3,135.9 140.9,137.9 139.3,139.7 C138.5,140.5 137.7,141.4 136.6,141.7 C135.3,142.1 134.3,141.5 134.3,141.5 C132.8,140 133.6,138.5 133.6,138.5 C133.8,138 134.1,137.6 134.4,137.2 C134.4,137.2 139.2,128.2 145.1,120.1 C146.3,118.4 149.7,113 149.7,113 C150.6,111.5 151.3,109.9 152,108.2 C152.8,106.2 153.3,103.9 153,101.8 C152.6,98 149,97.9 149,97.9 C147.9,97.9 146.7,98.1 145.6,98.6 C143.8,99.5 142.4,100.9 140.9,102.2 C139.4,103.5 137.6,104.6 135.6,104.6 C135.3,104.6 135,104.5 134.8,104.5 C134,104.4 133.9,103.8 133.9,103.8 C133.7,103.3 133.6,102.6 134.1,101.4 C134.4,100.7 134.9,99.6 135.5,98.6 C136.3,97.1 137.2,95.6 137.9,94.7 C138.7,93.6 139.1,92.4 139.1,92.4 C139.3,91.7 139.3,91 139.2,90.3 C139.1,89.7 139,89.1 138.5,88.8 C137.9,88.4 137,88.5 136.3,88.6 C134.6,89 133.1,89.9 131.7,90.9 L129.2,92.5 C125.8,94.6 122.6,96.8 119.4,99.2 C117.5,100.6 115.5,102.1 113.4,103 C108.6,105.1 107.3,104.3 107.3,104.3 C106.3,104 106.9,102.7 106.9,102.7 C109,96.4 111.3,90 115.6,85.3 C116.9,84.1 118.1,82.7 119.2,81.2 C122.1,76.7 121,70.3 123.1,65.4 C123.4,64.5 122.5,64.5 122.5,64.5 C117.8,63.4 113.2,69.2 109.9,72 C105.3,76.4 101.1,81.3 97.3,86.5 C89.5,96.5 82.2,107.1 72.6,115.3 C70.1,117.5 67.4,119.4 65.1,121.7 C62.2,124.7 59.6,128 57.2,131.4 C49.4,142.3 40.6,152.3 30.9,161.2 C27.9,163.8 24.5,166.9 23.7,170.8 C23.1,170.7 23,173.8 27.4,171.8 Z" id="Path" fill="#FFFFFF" fill-rule="nonzero"></path>
            <path d="M202.1,83.8 C204.1,82.7 207.7,81.5 210.8,85.1 L271.9,153.5 L272,153.6 L272,150.9 L272,68.3 L272,20.5 C272,17.1 268.7,14.4 264.6,14.4 L24,14.4 C19.9,14.4 16.5,17.1 16.5,20.5 L16.5,150.8 L16.5,153.6 L16.8,153.3 L18.3,151.5 L118.9,38.9 C118.9,38.9 124.5,33.8 129.1,39.2 L184.1,100.8 L185,101.8 L185.2,101.8 L200.4,84.8 C200.6,84.9 201.1,84.3 202.1,83.8" id="Path" fill="#FFFFFF" fill-rule="nonzero"></path>
        </g>
    </g>
</svg>